{
    "asset" : {
        "generator" : "Khronos glTF Blender I/O v1.6.16",
        "version" : "2.0"
    },
    "scene" : 0,
    "scenes" : [
        {
            "name" : "Scene",
            "nodes" : [
                4
            ]
        }
    ],
    "nodes" : [
        {
            "mesh" : 0,
            "name" : "Object_4"
        },
        {
            "children" : [
                0
            ],
            "name" : "_0"
        },
        {
            "children" : [
                1
            ],
            "name" : "GLTF_SceneRootNode",
            "rotation" : [
                0.7071068286895752,
                0,
                0,
                0.7071068286895752
            ]
        },
        {
            "children" : [
                2
            ],
            "name" : "root",
            "rotation" : [
                -0.037533123046159744,
                0.051498446613550186,
                -0.011225106194615364,
                0.9979044198989868
            ],
            "translation" : [
                0.022018324583768845,
                0.004288941156119108,
                -0.0019166812999173999
            ]
        },
        {
            "children" : [
                3
            ],
            "name" : "Sketchfab_model",
            "rotation" : [
                -0.7213578224182129,
                -0.09893886744976044,
                -0.03488422930240631,
                0.6845707893371582
            ],
            "scale" : [
                120,
                120,
                120
            ],
            "translation" : [
                0,
                14.978815078735352,
                -9.810215950012207
            ]
        }
    ],
    "materials" : [
        {
            "name" : "material_0.001",
            "pbrMetallicRoughness" : {
                "baseColorTexture" : {
                    "index" : 0
                },
                "metallicFactor" : 0,
                "roughnessFactor" : 0.5
            }
        }
    ],
    "meshes" : [
        {
            "name" : "Object_0",
            "primitives" : [
                {
                    "attributes" : {
                        "POSITION" : 0,
                        "NORMAL" : 1,
                        "TEXCOORD_0" : 2
                    },
                    "indices" : 3,
                    "material" : 0
                }
            ]
        }
    ],
    "textures" : [
        {
            "sampler" : 0,
            "source" : 0
        }
    ],
    "images" : [
        {
            "mimeType" : "image/jpeg",
            "name" : "Image_0",
            "uri" : "Image_0.jpg"
        }
    ],
    "accessors" : [
        {
            "bufferView" : 0,
            "componentType" : 5126,
            "count" : 62436,
            "max" : [
                0.10535578429698944,
                0.09283963590860367,
                0.1596425175666809
            ],
            "min" : [
                -0.11596111953258514,
                -0.132144495844841,
                0.03223789483308792
            ],
            "type" : "VEC3"
        },
        {
            "bufferView" : 1,
            "componentType" : 5126,
            "count" : 62436,
            "type" : "VEC3"
        },
        {
            "bufferView" : 2,
            "componentType" : 5126,
            "count" : 62436,
            "type" : "VEC2"
        },
        {
            "bufferView" : 3,
            "componentType" : 5123,
            "count" : 300000,
            "type" : "SCALAR"
        }
    ],
    "bufferViews" : [
        {
            "buffer" : 0,
            "byteLength" : 749232,
            "byteOffset" : 0
        },
        {
            "buffer" : 0,
            "byteLength" : 749232,
            "byteOffset" : 749232
        },
        {
            "buffer" : 0,
            "byteLength" : 499488,
            "byteOffset" : 1498464
        },
        {
            "buffer" : 0,
            "byteLength" : 600000,
            "byteOffset" : 1997952
        }
    ],
    "samplers" : [
        {
            "magFilter" : 9729,
            "minFilter" : 9987,
            "wrapS" : 33071,
            "wrapT" : 33071
        }
    ],
    "buffers" : [
        {
            "byteLength" : 2597952,
            "uri" : "untitled.bin"
        }
    ]
}
